<svg xmlns="http://www.w3.org/2000/svg" viewBox="0 0 207 124"><path fill="#000" d="M48.942 32.972h-17.4V.326H0v123.6h31.542V86.782h17.4v37.144H80.49V.326H48.942v32.646zM115.275 0c-21.376 0-36.038 15.796-36.038 35.474 0 23.074 16.61 33.422 40.365 38.635 16.217 3.292 20.682 6.246 20.682 12.714 0 6.246-5.53 10.368-15.02 10.368-10.38 0-17.86-4.18-19.714-14.186l-29.268 6.088c4.556 24.804 23.014 34.845 48.982 34.845 27.304 0 45.5-15.164 45.5-37.63 0-22.65-14.928-33.213-40.174-38.42-15.954-3.188-20.826-6.144-20.826-12.418 0-5.306 4.51-9.06 13.21-9.06 9.364 0 16.248 3.928 17.724 13.406l28.946-6.344C156.926 14.06 140.736 0 115.275 0z"/><path fill="#000" d="M207 123.926h-26.4L110.6 33.774h26.4z"/></svg>